<svg width="30" height="18" viewBox="0 0 30 18" fill="none" xmlns="http://www.w3.org/2000/svg">
<g clip-path="url(#clip0_2125_66)">
<path d="M24.0367 15.1312H27.8241C26.3494 13.891 25.4611 11.947 25.4611 9.26556C25.4611 6.58408 26.3494 4.64034 27.8241 3.40015H24.0367C22.981 4.79116 22.3774 6.73515 22.3774 9.26582C22.3774 11.7965 22.9807 13.7571 24.0367 15.1315" fill="#FF6B2F"/>
<path d="M2.82031 15.1312H6.60776C7.66346 13.7571 8.26697 11.8131 8.26697 9.26556C8.26697 6.71805 7.66346 4.79116 6.60776 3.40015H2.82031C4.29502 4.64034 5.18332 6.58434 5.18332 9.26582C5.18332 11.9473 4.29502 13.891 2.82031 15.1312Z" fill="#FF6B2F"/>
<path d="M8.18262 15.1312H11.7858C12.3054 13.556 12.5399 11.612 12.5399 9.26556C12.5399 6.91913 12.3054 4.9754 11.7858 3.40015H8.18262C9.10434 4.84143 9.60706 6.78542 9.60706 9.26582C9.60706 11.7462 9.10434 13.7068 8.18262 15.1315" fill="#FF6B2F"/>
<path d="M13.3276 15.1313H17.3162C16.9308 13.5057 16.7966 11.5617 16.7966 9.26558C16.7966 6.96942 16.9306 5.02569 17.3162 3.3999H13.3276C13.713 5.02543 13.8472 6.96942 13.8472 9.26558C13.8472 11.5617 13.7132 13.5055 13.3276 15.1313Z" fill="#FF6B2F"/>
<path d="M18.8581 15.1312H22.4613C21.5396 13.7068 21.0368 11.7628 21.0368 9.26556C21.0368 6.76832 21.5396 4.84143 22.4613 3.40015H18.8581C18.3385 4.9754 18.104 6.91939 18.104 9.26582C18.104 11.6122 18.3385 13.556 18.8581 15.1315" fill="#FF6B2F"/>
</g>
<defs>
<clipPath id="clip0_2125_66">
<rect width="25.004" height="11.7311" fill="white" transform="translate(2.81982 3.40015)"/>
</clipPath>
</defs>
</svg>
