<svg width="31" height="31" viewBox="0 0 31 31" fill="none" xmlns="http://www.w3.org/2000/svg">
<rect width="30" height="30" transform="translate(0.959961 0.959961)" fill="#300931"/>
<g clip-path="url(#clip0_2125_66)">
<path d="M24.9966 22.0912H28.7841C27.3094 20.851 26.4211 18.907 26.4211 16.2255C26.4211 13.544 27.3094 11.6003 28.7841 10.3601H24.9966C23.9409 11.7511 23.3374 13.6951 23.3374 16.2258C23.3374 18.7565 23.9407 20.717 24.9966 22.0915" fill="#FF6B2F"/>
<path d="M3.78027 22.0912H7.56772C8.62342 20.717 9.22693 18.773 9.22693 16.2255C9.22693 13.678 8.62342 11.7511 7.56772 10.3601H3.78027C5.25498 11.6003 6.14328 13.5443 6.14328 16.2258C6.14328 18.9073 5.25498 20.851 3.78027 22.0912Z" fill="#FF6B2F"/>
<path d="M9.14258 22.0912H12.7458C13.2653 20.5159 13.4999 18.5719 13.4999 16.2255C13.4999 13.8791 13.2653 11.9354 12.7458 10.3601H9.14258C10.0643 11.8014 10.567 13.7454 10.567 16.2258C10.567 18.7062 10.0643 20.6668 9.14258 22.0915" fill="#FF6B2F"/>
<path d="M14.2876 22.0912H18.2761C17.8908 20.4657 17.7566 18.5217 17.7566 16.2255C17.7566 13.9294 17.8905 11.9856 18.2761 10.3599H14.2876C14.6729 11.9854 14.8072 13.9294 14.8072 16.2255C14.8072 18.5217 14.6732 20.4654 14.2876 22.0912Z" fill="#FF6B2F"/>
<path d="M19.818 22.0912H23.4212C22.4995 20.6668 21.9968 18.7228 21.9968 16.2255C21.9968 13.7283 22.4995 11.8014 23.4212 10.3601H19.818C19.2985 11.9354 19.064 13.8794 19.064 16.2258C19.064 18.5722 19.2985 20.5159 19.818 22.0915" fill="#FF6B2F"/>
</g>
<defs>
<clipPath id="clip0_2125_66">
<rect width="25.004" height="11.7311" fill="white" transform="translate(3.77979 10.3601)"/>
</clipPath>
</defs>
</svg>
